<svg width="362" height="129" viewBox="0 0 362 129" fill="none" xmlns="http://www.w3.org/2000/svg">
<g filter="url(#filter0_i_157_2)">
<path d="M14.8125 59.75H0.875C1 58.2917 1.375 56.9167 2 55.625C2.66667 54.3333 3.47917 53.2083 4.4375 52.25C5.4375 51.25 6.5625 50.4792 7.8125 49.9375C9.0625 49.3542 10.3958 49.0625 11.8125 49.0625H14.8125V0.25H57.1875C58.8542 0.25 60.4583 0.666667 62 1.5C63.5417 2.29167 64.8958 3.41667 66.0625 4.875C67.2708 6.29167 68.2292 7.97917 68.9375 9.9375C69.6458 11.8542 70 13.9167 70 16.125V39.4375C70 42.4792 69.3125 45.2708 67.9375 47.8125C66.5625 50.3542 64.5625 52.3958 61.9375 53.9375C63.7708 54.6042 65.3542 55.5417 66.6875 56.75C68.0208 57.9583 69.125 59.2917 70 60.75C70.875 62.2083 71.5208 63.7292 71.9375 65.3125C72.3542 66.8958 72.5625 68.3958 72.5625 69.8125L72.5 84.25H88.9375C88.7708 85.75 88.3542 87.1458 87.6875 88.4375C87.0625 89.7292 86.25 90.875 85.25 91.875C84.2917 92.8333 83.1875 93.6042 81.9375 94.1875C80.6875 94.7292 79.375 95 78 95H69.375C67.75 95 66.2083 94.5833 64.75 93.75C63.3333 92.9167 62.0833 91.7917 61 90.375C59.9167 88.9583 59.0625 87.2917 58.4375 85.375C57.8125 83.4583 57.5 81.4167 57.5 79.25V59.75H29.625L29.5625 95H14.8125V59.75ZM55.1875 49.0625V10.9375H29.625V49.0625H55.1875ZM98.75 47.1875C98.75 44.6875 99.0833 42.3542 99.75 40.1875C100.458 38.0208 101.417 36.1458 102.625 34.5625C103.833 32.9792 105.25 31.75 106.875 30.875C108.542 29.9583 110.333 29.5 112.25 29.5H154.375V84.3125H167.938C167.771 85.7708 167.354 87.1667 166.688 88.5C166.062 89.7917 165.25 90.9167 164.25 91.875C163.292 92.8333 162.188 93.6042 160.938 94.1875C159.688 94.7292 158.375 95 157 95H150.312C148.271 95 146.333 94.3125 144.5 92.9375C142.667 91.5208 141.146 89.625 139.938 87.25C138.729 89.625 137.208 91.5208 135.375 92.9375C133.542 94.3125 131.604 95 129.562 95H110.625C109 95 107.458 94.5833 106 93.75C104.542 92.9167 103.271 91.7917 102.188 90.375C101.146 88.9583 100.312 87.3125 99.6875 85.4375C99.0625 83.5208 98.75 81.4792 98.75 79.3125V47.1875ZM139.5 84.3125V40.25H113.625V84.3125H139.5ZM180.625 29.5625H195.562V54.6875L210.75 34.3125C212.083 32.7292 213.458 31.5417 214.875 30.75C216.333 29.9167 218.104 29.5 220.188 29.5C221.854 29.5 223.438 29.9167 224.938 30.75C226.479 31.5833 227.812 32.7292 228.938 34.1875C230.104 35.6042 231.021 37.2708 231.688 39.1875C232.396 41.1042 232.75 43.1667 232.75 45.375V52.4375L245.875 34.3125C247.208 32.7708 248.708 31.5833 250.375 30.75C252.042 29.9167 253.896 29.5 255.938 29.5C257.604 29.5 259.188 29.9167 260.688 30.75C262.229 31.5833 263.562 32.7292 264.688 34.1875C265.854 35.6042 266.771 37.2708 267.438 39.1875C268.146 41.1042 268.5 43.1667 268.5 45.375V84.3125H279.625C279.458 85.7708 279.042 87.1667 278.375 88.5C277.75 89.7917 276.938 90.9167 275.938 91.875C274.979 92.8333 273.875 93.6042 272.625 94.1875C271.375 94.7292 270.062 95 268.688 95H265.312C263.688 95 262.146 94.5833 260.688 93.75C259.271 92.9167 258.042 91.7917 257 90.375C255.958 88.9167 255.125 87.2292 254.5 85.3125C253.917 83.3958 253.625 81.3333 253.625 79.125V41.5625L232.75 66.875V95H217.812V41.5625L195.562 69.0625V95H180.625V29.5625ZM307.438 112.812C307.438 115.021 307.125 117.083 306.5 119C305.917 120.958 305.083 122.646 304 124.062C302.958 125.521 301.729 126.667 300.312 127.5C298.896 128.375 297.375 128.812 295.75 128.812H292.5V29.5625H336.312C337.938 29.5625 339.458 29.9792 340.875 30.8125C342.292 31.6458 343.542 32.7917 344.625 34.25C345.708 35.6667 346.562 37.3333 347.188 39.25C347.812 41.1667 348.125 43.2292 348.125 45.4375V84.3125H361.312C361.146 85.7708 360.729 87.1667 360.062 88.5C359.438 89.7917 358.625 90.9167 357.625 91.875C356.667 92.8333 355.562 93.6042 354.312 94.1875C353.062 94.7292 351.75 95 350.375 95H317.438C315.438 95 313.562 94.375 311.812 93.125C310.062 91.8333 308.583 90.125 307.375 88L307.438 112.812ZM333.188 84.25V40.25H307.375V84.25H333.188Z" fill="#03C9D7"/>
</g>
<path d="M14.8125 59.75H15.8125V58.75H14.8125V59.75ZM0.875 59.75L-0.121347 59.6646L-0.214381 60.75H0.875V59.75ZM2 55.625L1.11138 55.1664L1.10546 55.1778L1.09984 55.1894L2 55.625ZM4.4375 52.25L3.73039 51.5429L4.4375 52.25ZM7.8125 49.9375L8.21011 50.8551L8.22283 50.8495L8.23539 50.8437L7.8125 49.9375ZM14.8125 49.0625V50.0625H15.8125V49.0625H14.8125ZM14.8125 0.25V-0.75H13.8125V0.25H14.8125ZM62 1.5L61.5245 2.37971L61.5338 2.38474L61.5432 2.38957L62 1.5ZM66.0625 4.875L65.2816 5.4997L65.2915 5.51198L65.3017 5.52395L66.0625 4.875ZM68.9375 9.9375L67.9971 10.2776L67.9995 10.2842L68.9375 9.9375ZM61.9375 53.9375L61.4311 53.0752L59.599 54.1512L61.5958 54.8773L61.9375 53.9375ZM72.5625 69.8125L73.5625 69.8168V69.8125H72.5625ZM72.5 84.25L71.5 84.2457L71.4957 85.25H72.5V84.25ZM88.9375 84.25L89.9314 84.3604L90.0548 83.25H88.9375V84.25ZM87.6875 88.4375L86.7989 87.9789L86.793 87.9903L86.7873 88.0019L87.6875 88.4375ZM85.25 91.875L84.5429 91.1679L85.25 91.875ZM81.9375 94.1875L82.3351 95.1051L82.3478 95.0995L82.3604 95.0937L81.9375 94.1875ZM64.75 93.75L64.2429 94.612L64.2539 94.6182L64.75 93.75ZM61 90.375L60.2056 90.9825L61 90.375ZM57.5 59.75H58.5V58.75H57.5V59.75ZM29.625 59.75V58.75H28.6268L28.625 59.7482L29.625 59.75ZM29.5625 95V96H30.5607L30.5625 95.0018L29.5625 95ZM14.8125 95H13.8125V96H14.8125V95ZM55.1875 49.0625V50.0625H56.1875V49.0625H55.1875ZM55.1875 10.9375H56.1875V9.9375H55.1875V10.9375ZM29.625 10.9375V9.9375H28.625V10.9375H29.625ZM29.625 49.0625H28.625V50.0625H29.625V49.0625ZM14.8125 58.75H0.875V60.75H14.8125V58.75ZM1.87135 59.8354C1.98614 58.4962 2.3294 57.2401 2.90016 56.0606L1.09984 55.1894C0.420601 56.5932 0.0138641 58.0871 -0.121347 59.6646L1.87135 59.8354ZM2.88862 56.0836C3.51139 54.877 4.26434 53.8374 5.14461 52.9571L3.73039 51.5429C2.69399 52.5793 1.82194 53.7896 1.11138 55.1664L2.88862 56.0836ZM5.14461 52.9571C6.05905 52.0427 7.07999 51.3448 8.21011 50.8551L7.41489 49.0199C6.04501 49.6136 4.81595 50.4573 3.73039 51.5429L5.14461 52.9571ZM8.23539 50.8437C9.34934 50.3238 10.5379 50.0625 11.8125 50.0625V48.0625C10.2538 48.0625 8.77566 48.3845 7.38961 49.0313L8.23539 50.8437ZM11.8125 50.0625H14.8125V48.0625H11.8125V50.0625ZM15.8125 49.0625V0.25H13.8125V49.0625H15.8125ZM14.8125 1.25H57.1875V-0.75H14.8125V1.25ZM57.1875 1.25C58.6795 1.25 60.1211 1.62112 61.5245 2.37971L62.4755 0.620293C60.7956 -0.287788 59.0288 -0.75 57.1875 -0.75V1.25ZM61.5432 2.38957C62.9498 3.1119 64.1962 4.14285 65.2816 5.4997L66.8434 4.2503C65.5955 2.69048 64.1335 1.47143 62.4568 0.610433L61.5432 2.38957ZM65.3017 5.52395C66.4234 6.83912 67.3248 8.41889 67.9971 10.2776L69.8779 9.59736C69.1335 7.53944 68.1182 5.74422 66.8233 4.22605L65.3017 5.52395ZM67.9995 10.2842C68.6636 12.0812 69 14.0254 69 16.125H71C71 13.8079 70.628 11.6271 69.8755 9.59085L67.9995 10.2842ZM69 16.125V39.4375H71V16.125H69ZM69 39.4375C69 42.322 68.3497 44.9489 67.058 47.3367L68.817 48.2883C70.2753 45.5928 71 42.6363 71 39.4375H69ZM67.058 47.3367C65.7745 49.7092 63.9076 51.6208 61.4311 53.0752L62.4439 54.7998C65.2174 53.1709 67.3505 50.9992 68.817 48.2883L67.058 47.3367ZM61.5958 54.8773C63.3176 55.5034 64.7865 56.3767 66.016 57.491L67.359 56.009C65.9219 54.7066 64.224 53.7049 62.2792 52.9977L61.5958 54.8773ZM66.016 57.491C67.2808 58.6372 68.3209 59.8951 69.1425 61.2645L70.8575 60.2355C69.9291 58.6882 68.7609 57.2795 67.359 56.009L66.016 57.491ZM69.1425 61.2645C69.9708 62.6449 70.5787 64.0786 70.9704 65.567L72.9046 65.058C72.4629 63.3798 71.7792 61.7717 70.8575 60.2355L69.1425 61.2645ZM70.9704 65.567C71.3685 67.0798 71.5625 68.4938 71.5625 69.8125H73.5625C73.5625 68.2978 73.3398 66.7118 72.9046 65.058L70.9704 65.567ZM71.5625 69.8082L71.5 84.2457L73.5 84.2543L73.5625 69.8168L71.5625 69.8082ZM72.5 85.25H88.9375V83.25H72.5V85.25ZM87.9436 84.1396C87.7899 85.5228 87.4073 86.8 86.7989 87.9789L88.5761 88.8961C89.301 87.4917 89.7517 85.9772 89.9314 84.3604L87.9436 84.1396ZM86.7873 88.0019C86.2103 89.1944 85.4626 90.2481 84.5429 91.1679L85.9571 92.5821C87.0374 91.5019 87.9147 90.2639 88.5877 88.8731L86.7873 88.0019ZM84.5429 91.1679C83.6685 92.0423 82.6609 92.7464 81.5146 93.2813L82.3604 95.0937C83.7141 94.462 84.9149 93.6243 85.9571 92.5821L84.5429 91.1679ZM81.5399 93.2699C80.4166 93.7567 79.2395 94 78 94V96C79.5105 96 80.9584 95.7016 82.3351 95.1051L81.5399 93.2699ZM78 94H69.375V96H78V94ZM69.375 94C67.93 94 66.5587 93.6318 65.2461 92.8818L64.2539 94.6182C65.858 95.5349 67.57 96 69.375 96V94ZM65.257 92.8881C63.9608 92.1256 62.806 91.0904 61.7944 89.7675L60.2056 90.9825C61.3607 92.4929 62.7058 93.7077 64.243 94.6119L65.257 92.8881ZM61.7944 89.7675C60.7879 88.4514 59.9828 86.8882 59.3882 85.065L57.4868 85.685C58.1422 87.6951 59.0455 89.4653 60.2056 90.9825L61.7944 89.7675ZM59.3882 85.065C58.7982 83.2556 58.5 81.3192 58.5 79.25H56.5C56.5 81.5141 56.8268 83.661 57.4868 85.685L59.3882 85.065ZM58.5 79.25V59.75H56.5V79.25H58.5ZM57.5 58.75H29.625V60.75H57.5V58.75ZM28.625 59.7482L28.5625 94.9982L30.5625 95.0018L30.625 59.7518L28.625 59.7482ZM29.5625 94H14.8125V96H29.5625V94ZM15.8125 95V59.75H13.8125V95H15.8125ZM56.1875 49.0625V10.9375H54.1875V49.0625H56.1875ZM55.1875 9.9375H29.625V11.9375H55.1875V9.9375ZM28.625 10.9375V49.0625H30.625V10.9375H28.625ZM29.625 50.0625H55.1875V48.0625H29.625V50.0625ZM99.75 40.1875L98.7995 39.8768L98.7968 39.8851L98.7942 39.8934L99.75 40.1875ZM102.625 34.5625L103.42 35.1692L102.625 34.5625ZM106.875 30.875L107.349 31.7555L107.357 31.7512L106.875 30.875ZM154.375 29.5H155.375V28.5H154.375V29.5ZM154.375 84.3125H153.375V85.3125H154.375V84.3125ZM167.938 84.3125L168.931 84.426L169.058 83.3125H167.938V84.3125ZM166.688 88.5L165.793 88.0527L165.787 88.0644L166.688 88.5ZM164.25 91.875L163.558 91.153L163.55 91.1604L163.543 91.1679L164.25 91.875ZM160.938 94.1875L161.335 95.1051L161.348 95.0995L161.36 95.0937L160.938 94.1875ZM144.5 92.9375L143.889 93.7288L143.894 93.7332L143.9 93.7375L144.5 92.9375ZM139.938 87.25L140.829 86.7965L139.938 85.0447L139.046 86.7965L139.938 87.25ZM135.375 92.9375L135.975 93.7375L135.981 93.7332L135.986 93.7288L135.375 92.9375ZM106 93.75L105.504 94.6182L106 93.75ZM102.188 90.375L101.382 90.9674L101.387 90.975L101.393 90.9825L102.188 90.375ZM99.6875 85.4375L98.7367 85.7475L98.7388 85.7537L99.6875 85.4375ZM139.5 84.3125V85.3125H140.5V84.3125H139.5ZM139.5 40.25H140.5V39.25H139.5V40.25ZM113.625 40.25V39.25H112.625V40.25H113.625ZM113.625 84.3125H112.625V85.3125H113.625V84.3125ZM99.75 47.1875C99.75 44.777 100.071 42.5437 100.706 40.4816L98.7942 39.8934C98.0954 42.1646 97.75 44.598 97.75 47.1875H99.75ZM100.7 40.4982C101.379 38.4231 102.289 36.6514 103.42 35.1692L101.83 33.9558C100.545 35.6402 99.5378 37.6186 98.7995 39.8768L100.7 40.4982ZM103.42 35.1692C104.549 33.6898 105.859 32.5578 107.349 31.7555L106.401 29.9945C104.641 30.9422 103.118 32.2685 101.83 33.9558L103.42 35.1692ZM107.357 31.7512C108.875 30.9164 110.5 30.5 112.25 30.5V28.5C110.166 28.5 108.209 29.0003 106.393 29.9988L107.357 31.7512ZM112.25 30.5H154.375V28.5H112.25V30.5ZM153.375 29.5V84.3125H155.375V29.5H153.375ZM154.375 85.3125H167.938V83.3125H154.375V85.3125ZM166.944 84.199C166.791 85.5393 166.408 86.8224 165.793 88.0528L167.582 88.9472C168.3 87.511 168.751 86.0024 168.931 84.426L166.944 84.199ZM165.787 88.0644C165.212 89.2529 164.469 90.28 163.558 91.153L164.942 92.597C166.031 91.5534 166.913 90.3304 167.588 88.9356L165.787 88.0644ZM163.543 91.1679C162.668 92.0423 161.661 92.7464 160.515 93.2813L161.36 95.0937C162.714 94.462 163.915 93.6243 164.957 92.5821L163.543 91.1679ZM160.54 93.2699C159.417 93.7567 158.24 94 157 94V96C158.51 96 159.958 95.7016 161.335 95.1051L160.54 93.2699ZM157 94H150.312V96H157V94ZM150.312 94C148.513 94 146.782 93.3994 145.1 92.1375L143.9 93.7375C145.884 95.2256 148.028 96 150.312 96V94ZM145.111 92.1462C143.412 90.8327 141.98 89.0594 140.829 86.7965L139.046 87.7035C140.312 90.1906 141.922 92.209 143.889 93.7288L145.111 92.1462ZM139.046 86.7965C137.895 89.0594 136.463 90.8327 134.764 92.1462L135.986 93.7288C137.953 92.209 139.563 90.1906 140.829 87.7035L139.046 86.7965ZM134.775 92.1375C133.093 93.3994 131.362 94 129.562 94V96C131.847 96 133.991 95.2256 135.975 93.7375L134.775 92.1375ZM129.562 94H110.625V96H129.562V94ZM110.625 94C109.18 94 107.809 93.6318 106.496 92.8818L105.504 94.6182C107.108 95.5349 108.82 96 110.625 96V94ZM106.496 92.8818C105.161 92.1186 103.989 91.0849 102.982 89.7675L101.393 90.9825C102.552 92.4984 103.923 93.7147 105.504 94.6182L106.496 92.8818ZM102.993 89.7826C102.02 88.4597 101.232 86.9094 100.636 85.1213L98.7388 85.7537C99.3928 87.7156 100.271 89.457 101.382 90.9674L102.993 89.7826ZM100.638 85.1275C100.048 83.3181 99.75 81.3817 99.75 79.3125H97.75C97.75 81.5766 98.0768 83.7235 98.7368 85.7475L100.638 85.1275ZM99.75 79.3125V47.1875H97.75V79.3125H99.75ZM140.5 84.3125V40.25H138.5V84.3125H140.5ZM139.5 39.25H113.625V41.25H139.5V39.25ZM112.625 40.25V84.3125H114.625V40.25H112.625ZM113.625 85.3125H139.5V83.3125H113.625V85.3125ZM180.625 29.5625V28.5625H179.625V29.5625H180.625ZM195.562 29.5625H196.562V28.5625H195.562V29.5625ZM195.562 54.6875H194.562V57.7023L196.364 55.2851L195.562 54.6875ZM210.75 34.3125L209.985 33.6684L209.966 33.6911L209.948 33.7149L210.75 34.3125ZM214.875 30.75L215.363 31.623L215.371 31.6182L214.875 30.75ZM224.938 30.75L224.452 31.6242L224.462 31.6297L224.938 30.75ZM228.938 34.1875L228.146 34.7983L228.155 34.8109L228.166 34.8232L228.938 34.1875ZM231.688 39.1875L230.743 39.516L230.746 39.5251L230.75 39.5342L231.688 39.1875ZM232.75 52.4375H231.75V55.5235L233.56 53.024L232.75 52.4375ZM245.875 34.3125L245.119 33.6583L245.09 33.691L245.065 33.726L245.875 34.3125ZM250.375 30.75L249.928 29.8556L250.375 30.75ZM260.688 30.75L260.202 31.6242L260.212 31.6297L260.688 30.75ZM264.688 34.1875L263.896 34.7983L263.905 34.8109L263.916 34.8232L264.688 34.1875ZM267.438 39.1875L266.493 39.516L266.496 39.5251L266.5 39.5342L267.438 39.1875ZM268.5 84.3125H267.5V85.3125H268.5V84.3125ZM279.625 84.3125L280.619 84.426L280.746 83.3125H279.625V84.3125ZM278.375 88.5L277.48 88.0527L277.475 88.0644L278.375 88.5ZM275.938 91.875L275.246 91.153L275.238 91.1604L275.23 91.1679L275.938 91.875ZM272.625 94.1875L273.023 95.1051L273.035 95.0995L273.048 95.0937L272.625 94.1875ZM260.688 93.75L260.18 94.612L260.191 94.6182L260.688 93.75ZM257 90.375L256.186 90.9563L256.194 90.9674L257 90.375ZM254.5 85.3125L253.543 85.6037L253.546 85.6131L253.549 85.6225L254.5 85.3125ZM253.625 41.5625H254.625V38.7782L252.854 40.9263L253.625 41.5625ZM232.75 66.875L231.979 66.2388L231.75 66.5158V66.875H232.75ZM232.75 95V96H233.75V95H232.75ZM217.812 95H216.812V96H217.812V95ZM217.812 41.5625H218.812V38.7367L217.035 40.9335L217.812 41.5625ZM195.562 69.0625L194.785 68.4335L194.562 68.7086V69.0625H195.562ZM195.562 95V96H196.562V95H195.562ZM180.625 95H179.625V96H180.625V95ZM180.625 30.5625H195.562V28.5625H180.625V30.5625ZM194.562 29.5625V54.6875H196.562V29.5625H194.562ZM196.364 55.2851L211.552 34.9101L209.948 33.7149L194.761 54.0899L196.364 55.2851ZM211.515 34.9566C212.791 33.4414 214.076 32.342 215.363 31.6229L214.387 29.8771C212.841 30.7414 211.376 32.017 209.985 33.6684L211.515 34.9566ZM215.371 31.6182C216.646 30.8897 218.237 30.5 220.188 30.5V28.5C217.972 28.5 216.021 28.9436 214.379 29.8818L215.371 31.6182ZM220.188 30.5C221.679 30.5 223.096 30.8708 224.452 31.6242L225.423 29.8758C223.779 28.9625 222.029 28.5 220.188 28.5V30.5ZM224.462 31.6297C225.874 32.3931 227.102 33.445 228.146 34.7983L229.729 33.5767C228.523 32.0134 227.084 30.7735 225.413 29.8703L224.462 31.6297ZM228.166 34.8232C229.249 36.1393 230.111 37.6994 230.743 39.516L232.632 38.859C231.931 36.8423 230.959 35.069 229.709 33.5518L228.166 34.8232ZM230.75 39.5342C231.414 41.3312 231.75 43.2754 231.75 45.375H233.75C233.75 43.0579 233.378 40.8771 232.625 38.8408L230.75 39.5342ZM231.75 45.375V52.4375H233.75V45.375H231.75ZM233.56 53.024L246.685 34.899L245.065 33.726L231.94 51.851L233.56 53.024ZM246.631 34.9667C247.887 33.5153 249.284 32.4135 250.822 31.6444L249.928 29.8556C248.133 30.7532 246.53 32.0264 245.119 33.6583L246.631 34.9667ZM250.822 31.6444C252.337 30.887 254.036 30.5 255.938 30.5V28.5C253.756 28.5 251.746 28.9464 249.928 29.8556L250.822 31.6444ZM255.938 30.5C257.429 30.5 258.846 30.8708 260.202 31.6242L261.173 29.8758C259.529 28.9625 257.779 28.5 255.938 28.5V30.5ZM260.212 31.6297C261.624 32.3931 262.852 33.445 263.896 34.7983L265.479 33.5767C264.273 32.0134 262.834 30.7735 261.163 29.8703L260.212 31.6297ZM263.916 34.8232C264.999 36.1393 265.861 37.6994 266.493 39.516L268.382 38.859C267.681 36.8423 266.709 35.069 265.459 33.5518L263.916 34.8232ZM266.5 39.5342C267.164 41.3312 267.5 43.2754 267.5 45.375H269.5C269.5 43.0579 269.128 40.8771 268.375 38.8408L266.5 39.5342ZM267.5 45.375V84.3125H269.5V45.375H267.5ZM268.5 85.3125H279.625V83.3125H268.5V85.3125ZM278.631 84.199C278.478 85.5393 278.096 86.8224 277.481 88.0528L279.269 88.9472C279.988 87.511 280.438 86.0024 280.619 84.426L278.631 84.199ZM277.475 88.0644C276.9 89.2529 276.157 90.28 275.246 91.153L276.629 92.597C277.718 91.5534 278.6 90.3304 279.275 88.9356L277.475 88.0644ZM275.23 91.1679C274.356 92.0423 273.348 92.7464 272.202 93.2813L273.048 95.0937C274.402 94.462 275.602 93.6243 276.645 92.5821L275.23 91.1679ZM272.227 93.2699C271.104 93.7567 269.927 94 268.688 94V96C270.198 96 271.646 95.7016 273.023 95.1051L272.227 93.2699ZM268.688 94H265.312V96H268.688V94ZM265.312 94C263.868 94 262.496 93.6318 261.184 92.8818L260.191 94.6182C261.795 95.5349 263.507 96 265.312 96V94ZM261.195 92.8881C259.903 92.1281 258.773 91.0979 257.806 89.7826L256.194 90.9674C257.311 92.4855 258.639 93.7052 260.18 94.6119L261.195 92.8881ZM257.814 89.7938C256.838 88.428 256.048 86.8342 255.451 85.0025L253.549 85.6225C254.202 87.6241 255.079 89.4054 256.186 90.9562L257.814 89.7938ZM255.457 85.0213C254.905 83.2082 254.625 81.2447 254.625 79.125H252.625C252.625 81.422 252.928 83.5835 253.543 85.6037L255.457 85.0213ZM254.625 79.125V41.5625H252.625V79.125H254.625ZM252.854 40.9263L231.979 66.2388L233.521 67.5112L254.396 42.1987L252.854 40.9263ZM231.75 66.875V95H233.75V66.875H231.75ZM232.75 94H217.812V96H232.75V94ZM218.812 95V41.5625H216.812V95H218.812ZM217.035 40.9335L194.785 68.4335L196.34 69.6915L218.59 42.1915L217.035 40.9335ZM194.562 69.0625V95H196.562V69.0625H194.562ZM195.562 94H180.625V96H195.562V94ZM181.625 95V29.5625H179.625V95H181.625ZM307.438 112.812H308.438L308.437 112.81L307.438 112.812ZM306.5 119L305.549 118.69L305.545 118.702L305.542 118.715L306.5 119ZM304 124.062L303.206 123.455L303.196 123.468L303.186 123.481L304 124.062ZM300.312 127.5L299.805 126.638L299.796 126.644L299.787 126.649L300.312 127.5ZM292.5 128.812H291.5V129.812H292.5V128.812ZM292.5 29.5625V28.5625H291.5V29.5625H292.5ZM340.875 30.8125L341.382 29.9506L340.875 30.8125ZM344.625 34.25L343.822 34.8464L343.831 34.8575L344.625 34.25ZM348.125 84.3125H347.125V85.3125H348.125V84.3125ZM361.312 84.3125L362.306 84.426L362.433 83.3125H361.312V84.3125ZM360.062 88.5L359.168 88.0527L359.162 88.0644L360.062 88.5ZM357.625 91.875L356.933 91.153L356.925 91.1604L356.918 91.1679L357.625 91.875ZM354.312 94.1875L354.71 95.1051L354.723 95.0995L354.735 95.0937L354.312 94.1875ZM311.812 93.125L311.219 93.9296L311.225 93.9342L311.231 93.9387L311.812 93.125ZM307.375 88L308.244 87.5057L306.365 84.2015L306.375 88.0025L307.375 88ZM333.188 84.25V85.25H334.188V84.25H333.188ZM333.188 40.25H334.188V39.25H333.188V40.25ZM307.375 40.25V39.25H306.375V40.25H307.375ZM307.375 84.25H306.375V85.25H307.375V84.25ZM306.438 112.812C306.438 114.926 306.139 116.882 305.549 118.69L307.451 119.31C308.111 117.284 308.438 115.116 308.438 112.812H306.438ZM305.542 118.715C304.988 120.573 304.205 122.148 303.206 123.455L304.794 124.67C305.961 123.144 306.845 121.343 307.458 119.285L305.542 118.715ZM303.186 123.481C302.219 124.836 301.091 125.882 299.805 126.638L300.82 128.362C302.368 127.451 303.698 126.206 304.814 124.644L303.186 123.481ZM299.787 126.649C298.524 127.429 297.185 127.812 295.75 127.812V129.812C297.565 129.812 299.268 129.321 300.838 128.351L299.787 126.649ZM295.75 127.812H292.5V129.812H295.75V127.812ZM293.5 128.812V29.5625H291.5V128.812H293.5ZM292.5 30.5625H336.312V28.5625H292.5V30.5625ZM336.312 30.5625C337.757 30.5625 339.103 30.9304 340.368 31.6744L341.382 29.9506C339.814 29.0279 338.118 28.5625 336.312 28.5625V30.5625ZM340.368 31.6744C341.658 32.4331 342.81 33.4841 343.822 34.8463L345.428 33.6537C344.273 32.0993 342.926 30.8586 341.382 29.9506L340.368 31.6744ZM343.831 34.8575C344.837 36.1736 345.642 37.7368 346.237 39.56L348.138 38.94C347.483 36.9299 346.58 35.1597 345.419 33.6425L343.831 34.8575ZM346.237 39.56C346.826 41.3675 347.125 43.3245 347.125 45.4375H349.125C349.125 43.1339 348.799 40.9658 348.138 38.94L346.237 39.56ZM347.125 45.4375V84.3125H349.125V45.4375H347.125ZM348.125 85.3125H361.312V83.3125H348.125V85.3125ZM360.319 84.199C360.166 85.5393 359.783 86.8224 359.168 88.0528L360.957 88.9472C361.675 87.511 362.126 86.0024 362.306 84.426L360.319 84.199ZM359.162 88.0644C358.587 89.2529 357.844 90.28 356.933 91.153L358.317 92.597C359.406 91.5534 360.288 90.3304 360.963 88.9356L359.162 88.0644ZM356.918 91.1679C356.043 92.0423 355.036 92.7464 353.89 93.2813L354.735 95.0937C356.089 94.462 357.29 93.6243 358.332 92.5821L356.918 91.1679ZM353.915 93.2699C352.792 93.7567 351.615 94 350.375 94V96C351.885 96 353.333 95.7016 354.71 95.1051L353.915 93.2699ZM350.375 94H317.438V96H350.375V94ZM317.438 94C315.662 94 313.988 93.4498 312.394 92.3113L311.231 93.9387C313.137 95.3002 315.213 96 317.438 96V94ZM312.406 92.3204C310.782 91.1215 309.392 89.5242 308.244 87.5057L306.506 88.4943C307.775 90.7258 309.343 92.5452 311.219 93.9296L312.406 92.3204ZM306.375 88.0025L306.438 112.815L308.437 112.81L308.375 87.9975L306.375 88.0025ZM334.188 84.25V40.25H332.188V84.25H334.188ZM333.188 39.25H307.375V41.25H333.188V39.25ZM306.375 40.25V84.25H308.375V40.25H306.375ZM307.375 85.25H333.188V83.25H307.375V85.25Z" fill="black"/>
<defs>
<filter id="filter0_i_157_2" x="0.875" y="0.25" width="360.438" height="132.562" filterUnits="userSpaceOnUse" color-interpolation-filters="sRGB">
<feFlood flood-opacity="0" result="BackgroundImageFix"/>
<feBlend mode="normal" in="SourceGraphic" in2="BackgroundImageFix" result="shape"/>
<feColorMatrix in="SourceAlpha" type="matrix" values="0 0 0 0 0 0 0 0 0 0 0 0 0 0 0 0 0 0 127 0" result="hardAlpha"/>
<feOffset dy="4"/>
<feGaussianBlur stdDeviation="2"/>
<feComposite in2="hardAlpha" operator="arithmetic" k2="-1" k3="1"/>
<feColorMatrix type="matrix" values="0 0 0 0 0 0 0 0 0 0 0 0 0 0 0 0 0 0 0.25 0"/>
<feBlend mode="normal" in2="shape" result="effect1_innerShadow_157_2"/>
</filter>
</defs>
</svg>
