<svg width="361" height="129" viewBox="0 0 361 129" fill="none" xmlns="http://www.w3.org/2000/svg">
<g filter="url(#filter0_i_157_2)">
<path d="M14.8125 59.75H0.875C1 58.2917 1.375 56.9167 2 55.625C2.66667 54.3333 3.47917 53.2083 4.4375 52.25C5.4375 51.25 6.5625 50.4792 7.8125 49.9375C9.0625 49.3542 10.3958 49.0625 11.8125 49.0625H14.8125V0.25H57.1875C58.8542 0.25 60.4583 0.666667 62 1.5C63.5417 2.29167 64.8958 3.41667 66.0625 4.875C67.2708 6.29167 68.2292 7.97917 68.9375 9.9375C69.6458 11.8542 70 13.9167 70 16.125V39.4375C70 42.4792 69.3125 45.2708 67.9375 47.8125C66.5625 50.3542 64.5625 52.3958 61.9375 53.9375C63.7708 54.6042 65.3542 55.5417 66.6875 56.75C68.0208 57.9583 69.125 59.2917 70 60.75C70.875 62.2083 71.5208 63.7292 71.9375 65.3125C72.3542 66.8958 72.5625 68.3958 72.5625 69.8125L72.5 84.25H88.9375C88.7708 85.75 88.3542 87.1458 87.6875 88.4375C87.0625 89.7292 86.25 90.875 85.25 91.875C84.2917 92.8333 83.1875 93.6042 81.9375 94.1875C80.6875 94.7292 79.375 95 78 95H69.375C67.75 95 66.2083 94.5833 64.75 93.75C63.3333 92.9167 62.0833 91.7917 61 90.375C59.9167 88.9583 59.0625 87.2917 58.4375 85.375C57.8125 83.4583 57.5 81.4167 57.5 79.25V59.75H29.625L29.5625 95H14.8125V59.75ZM55.1875 49.0625V10.9375H29.625V49.0625H55.1875ZM98 29.5625H112.938V84.3125H138.75V29.5625H153.625V84.3125H166.312C166.146 85.7708 165.729 87.1667 165.062 88.5C164.438 89.7917 163.625 90.9167 162.625 91.875C161.667 92.8333 160.562 93.6042 159.312 94.1875C158.062 94.7292 156.75 95 155.375 95H143.625L138.75 87.0625C138.292 88.2292 137.708 89.3125 137 90.3125C136.292 91.2708 135.479 92.1042 134.562 92.8125C133.688 93.4792 132.75 94.0208 131.75 94.4375C130.792 94.8125 129.854 95 128.938 95H109.875C108.25 95 106.708 94.5833 105.25 93.75C103.792 92.9167 102.521 91.7917 101.438 90.375C100.396 88.9167 99.5625 87.2292 98.9375 85.3125C98.3125 83.3958 98 81.3333 98 79.125V29.5625ZM179.5 29.5625H194.438V54.6875L209.625 34.3125C210.958 32.7292 212.333 31.5417 213.75 30.75C215.208 29.9167 216.979 29.5 219.062 29.5C220.729 29.5 222.312 29.9167 223.812 30.75C225.354 31.5833 226.688 32.7292 227.812 34.1875C228.979 35.6042 229.896 37.2708 230.562 39.1875C231.271 41.1042 231.625 43.1667 231.625 45.375V52.4375L244.75 34.3125C246.083 32.7708 247.583 31.5833 249.25 30.75C250.917 29.9167 252.771 29.5 254.812 29.5C256.479 29.5 258.062 29.9167 259.562 30.75C261.104 31.5833 262.438 32.7292 263.562 34.1875C264.729 35.6042 265.646 37.2708 266.312 39.1875C267.021 41.1042 267.375 43.1667 267.375 45.375V84.3125H278.5C278.333 85.7708 277.917 87.1667 277.25 88.5C276.625 89.7917 275.812 90.9167 274.812 91.875C273.854 92.8333 272.75 93.6042 271.5 94.1875C270.25 94.7292 268.938 95 267.562 95H264.188C262.562 95 261.021 94.5833 259.562 93.75C258.146 92.9167 256.917 91.7917 255.875 90.375C254.833 88.9167 254 87.2292 253.375 85.3125C252.792 83.3958 252.5 81.3333 252.5 79.125V41.5625L231.625 66.875V95H216.688V41.5625L194.438 69.0625V95H179.5V29.5625ZM306.312 112.812C306.312 115.021 306 117.083 305.375 119C304.792 120.958 303.958 122.646 302.875 124.062C301.833 125.521 300.604 126.667 299.188 127.5C297.771 128.375 296.25 128.812 294.625 128.812H291.375V29.5625H335.188C336.812 29.5625 338.333 29.9792 339.75 30.8125C341.167 31.6458 342.417 32.7917 343.5 34.25C344.583 35.6667 345.438 37.3333 346.062 39.25C346.688 41.1667 347 43.2292 347 45.4375V84.3125H360.188C360.021 85.7708 359.604 87.1667 358.938 88.5C358.312 89.7917 357.5 90.9167 356.5 91.875C355.542 92.8333 354.438 93.6042 353.188 94.1875C351.938 94.7292 350.625 95 349.25 95H316.312C314.312 95 312.438 94.375 310.688 93.125C308.938 91.8333 307.458 90.125 306.25 88L306.312 112.812ZM332.062 84.25V40.25H306.25V84.25H332.062Z" fill="#03C9D7"/>
</g>
<path d="M14.8125 59.75H15.8125V58.75H14.8125V59.75ZM0.875 59.75L-0.121347 59.6646L-0.214381 60.75H0.875V59.75ZM2 55.625L1.11138 55.1664L1.10546 55.1778L1.09984 55.1894L2 55.625ZM4.4375 52.25L3.73039 51.5429L4.4375 52.25ZM7.8125 49.9375L8.21011 50.8551L8.22283 50.8495L8.23539 50.8437L7.8125 49.9375ZM14.8125 49.0625V50.0625H15.8125V49.0625H14.8125ZM14.8125 0.25V-0.75H13.8125V0.25H14.8125ZM62 1.5L61.5245 2.37971L61.5338 2.38474L61.5432 2.38957L62 1.5ZM66.0625 4.875L65.2816 5.4997L65.2915 5.51198L65.3017 5.52395L66.0625 4.875ZM68.9375 9.9375L67.9971 10.2776L67.9995 10.2842L68.9375 9.9375ZM61.9375 53.9375L61.4311 53.0752L59.599 54.1512L61.5958 54.8773L61.9375 53.9375ZM72.5625 69.8125L73.5625 69.8168V69.8125H72.5625ZM72.5 84.25L71.5 84.2457L71.4957 85.25H72.5V84.25ZM88.9375 84.25L89.9314 84.3604L90.0548 83.25H88.9375V84.25ZM87.6875 88.4375L86.7989 87.9789L86.793 87.9903L86.7873 88.0019L87.6875 88.4375ZM85.25 91.875L84.5429 91.1679L85.25 91.875ZM81.9375 94.1875L82.3351 95.1051L82.3478 95.0995L82.3604 95.0937L81.9375 94.1875ZM64.75 93.75L64.2429 94.612L64.2539 94.6182L64.75 93.75ZM61 90.375L60.2056 90.9825L61 90.375ZM57.5 59.75H58.5V58.75H57.5V59.75ZM29.625 59.75V58.75H28.6268L28.625 59.7482L29.625 59.75ZM29.5625 95V96H30.5607L30.5625 95.0018L29.5625 95ZM14.8125 95H13.8125V96H14.8125V95ZM55.1875 49.0625V50.0625H56.1875V49.0625H55.1875ZM55.1875 10.9375H56.1875V9.9375H55.1875V10.9375ZM29.625 10.9375V9.9375H28.625V10.9375H29.625ZM29.625 49.0625H28.625V50.0625H29.625V49.0625ZM14.8125 58.75H0.875V60.75H14.8125V58.75ZM1.87135 59.8354C1.98614 58.4962 2.3294 57.2401 2.90016 56.0606L1.09984 55.1894C0.420601 56.5932 0.0138641 58.0871 -0.121347 59.6646L1.87135 59.8354ZM2.88862 56.0836C3.51139 54.877 4.26434 53.8374 5.14461 52.9571L3.73039 51.5429C2.69399 52.5793 1.82194 53.7896 1.11138 55.1664L2.88862 56.0836ZM5.14461 52.9571C6.05905 52.0427 7.07999 51.3448 8.21011 50.8551L7.41489 49.0199C6.04501 49.6136 4.81595 50.4573 3.73039 51.5429L5.14461 52.9571ZM8.23539 50.8437C9.34934 50.3238 10.5379 50.0625 11.8125 50.0625V48.0625C10.2538 48.0625 8.77566 48.3845 7.38961 49.0313L8.23539 50.8437ZM11.8125 50.0625H14.8125V48.0625H11.8125V50.0625ZM15.8125 49.0625V0.25H13.8125V49.0625H15.8125ZM14.8125 1.25H57.1875V-0.75H14.8125V1.25ZM57.1875 1.25C58.6795 1.25 60.1211 1.62112 61.5245 2.37971L62.4755 0.620293C60.7956 -0.287788 59.0288 -0.75 57.1875 -0.75V1.25ZM61.5432 2.38957C62.9498 3.1119 64.1962 4.14285 65.2816 5.4997L66.8434 4.2503C65.5955 2.69048 64.1335 1.47143 62.4568 0.610433L61.5432 2.38957ZM65.3017 5.52395C66.4234 6.83912 67.3248 8.41889 67.9971 10.2776L69.8779 9.59736C69.1335 7.53944 68.1182 5.74422 66.8233 4.22605L65.3017 5.52395ZM67.9995 10.2842C68.6636 12.0812 69 14.0254 69 16.125H71C71 13.8079 70.628 11.6271 69.8755 9.59085L67.9995 10.2842ZM69 16.125V39.4375H71V16.125H69ZM69 39.4375C69 42.322 68.3497 44.9489 67.058 47.3367L68.817 48.2883C70.2753 45.5928 71 42.6363 71 39.4375H69ZM67.058 47.3367C65.7745 49.7092 63.9076 51.6208 61.4311 53.0752L62.4439 54.7998C65.2174 53.1709 67.3505 50.9992 68.817 48.2883L67.058 47.3367ZM61.5958 54.8773C63.3176 55.5034 64.7865 56.3767 66.016 57.491L67.359 56.009C65.9219 54.7066 64.224 53.7049 62.2792 52.9977L61.5958 54.8773ZM66.016 57.491C67.2808 58.6372 68.3209 59.8951 69.1425 61.2645L70.8575 60.2355C69.9291 58.6882 68.7609 57.2795 67.359 56.009L66.016 57.491ZM69.1425 61.2645C69.9708 62.6449 70.5787 64.0786 70.9704 65.567L72.9046 65.058C72.4629 63.3798 71.7792 61.7717 70.8575 60.2355L69.1425 61.2645ZM70.9704 65.567C71.3685 67.0798 71.5625 68.4938 71.5625 69.8125H73.5625C73.5625 68.2978 73.3398 66.7118 72.9046 65.058L70.9704 65.567ZM71.5625 69.8082L71.5 84.2457L73.5 84.2543L73.5625 69.8168L71.5625 69.8082ZM72.5 85.25H88.9375V83.25H72.5V85.25ZM87.9436 84.1396C87.7899 85.5228 87.4073 86.8 86.7989 87.9789L88.5761 88.8961C89.301 87.4917 89.7517 85.9772 89.9314 84.3604L87.9436 84.1396ZM86.7873 88.0019C86.2103 89.1944 85.4626 90.2481 84.5429 91.1679L85.9571 92.5821C87.0374 91.5019 87.9147 90.2639 88.5877 88.8731L86.7873 88.0019ZM84.5429 91.1679C83.6685 92.0423 82.6609 92.7464 81.5146 93.2813L82.3604 95.0937C83.7141 94.462 84.9149 93.6243 85.9571 92.5821L84.5429 91.1679ZM81.5399 93.2699C80.4166 93.7567 79.2395 94 78 94V96C79.5105 96 80.9584 95.7016 82.3351 95.1051L81.5399 93.2699ZM78 94H69.375V96H78V94ZM69.375 94C67.93 94 66.5587 93.6318 65.2461 92.8818L64.2539 94.6182C65.858 95.5349 67.57 96 69.375 96V94ZM65.257 92.8881C63.9608 92.1256 62.806 91.0904 61.7944 89.7675L60.2056 90.9825C61.3607 92.4929 62.7058 93.7077 64.243 94.6119L65.257 92.8881ZM61.7944 89.7675C60.7879 88.4514 59.9828 86.8882 59.3882 85.065L57.4868 85.685C58.1422 87.6951 59.0455 89.4653 60.2056 90.9825L61.7944 89.7675ZM59.3882 85.065C58.7982 83.2556 58.5 81.3192 58.5 79.25H56.5C56.5 81.5141 56.8268 83.661 57.4868 85.685L59.3882 85.065ZM58.5 79.25V59.75H56.5V79.25H58.5ZM57.5 58.75H29.625V60.75H57.5V58.75ZM28.625 59.7482L28.5625 94.9982L30.5625 95.0018L30.625 59.7518L28.625 59.7482ZM29.5625 94H14.8125V96H29.5625V94ZM15.8125 95V59.75H13.8125V95H15.8125ZM56.1875 49.0625V10.9375H54.1875V49.0625H56.1875ZM55.1875 9.9375H29.625V11.9375H55.1875V9.9375ZM28.625 10.9375V49.0625H30.625V10.9375H28.625ZM29.625 50.0625H55.1875V48.0625H29.625V50.0625ZM98 29.5625V28.5625H97V29.5625H98ZM112.938 29.5625H113.938V28.5625H112.938V29.5625ZM112.938 84.3125H111.938V85.3125H112.938V84.3125ZM138.75 84.3125V85.3125H139.75V84.3125H138.75ZM138.75 29.5625V28.5625H137.75V29.5625H138.75ZM153.625 29.5625H154.625V28.5625H153.625V29.5625ZM153.625 84.3125H152.625V85.3125H153.625V84.3125ZM166.312 84.3125L167.306 84.426L167.433 83.3125H166.312V84.3125ZM165.062 88.5L164.168 88.0527L164.162 88.0644L165.062 88.5ZM162.625 91.875L161.933 91.153L161.925 91.1604L161.918 91.1679L162.625 91.875ZM159.312 94.1875L159.71 95.1051L159.723 95.0995L159.735 95.0937L159.312 94.1875ZM143.625 95L142.773 95.5233L143.066 96H143.625V95ZM138.75 87.0625L139.602 86.5392L138.553 84.8302L137.819 86.6968L138.75 87.0625ZM137 90.3125L137.804 90.9069L137.81 90.8988L137.816 90.8905L137 90.3125ZM134.562 92.8125L135.169 93.608L135.174 93.6038L134.562 92.8125ZM131.75 94.4375L132.114 95.3687L132.125 95.3648L132.135 95.3606L131.75 94.4375ZM105.25 93.75L104.754 94.6182L105.25 93.75ZM101.438 90.375L100.624 90.9562L100.633 90.9695L100.643 90.9825L101.438 90.375ZM98 30.5625H112.938V28.5625H98V30.5625ZM111.938 29.5625V84.3125H113.938V29.5625H111.938ZM112.938 85.3125H138.75V83.3125H112.938V85.3125ZM139.75 84.3125V29.5625H137.75V84.3125H139.75ZM138.75 30.5625H153.625V28.5625H138.75V30.5625ZM152.625 29.5625V84.3125H154.625V29.5625H152.625ZM153.625 85.3125H166.312V83.3125H153.625V85.3125ZM165.319 84.199C165.166 85.5393 164.783 86.8224 164.168 88.0528L165.957 88.9472C166.675 87.511 167.126 86.0024 167.306 84.426L165.319 84.199ZM164.162 88.0644C163.587 89.2529 162.844 90.28 161.933 91.153L163.317 92.597C164.406 91.5534 165.288 90.3304 165.963 88.9356L164.162 88.0644ZM161.918 91.1679C161.043 92.0423 160.036 92.7464 158.89 93.2813L159.735 95.0937C161.089 94.462 162.29 93.6243 163.332 92.5821L161.918 91.1679ZM158.915 93.2699C157.792 93.7567 156.615 94 155.375 94V96C156.885 96 158.333 95.7016 159.71 95.1051L158.915 93.2699ZM155.375 94H143.625V96H155.375V94ZM144.477 94.4767L139.602 86.5392L137.898 87.5858L142.773 95.5233L144.477 94.4767ZM137.819 86.6968C137.39 87.7901 136.845 88.8019 136.184 89.7345L137.816 90.8905C138.572 89.8231 139.194 88.6683 139.681 87.4282L137.819 86.6968ZM136.196 89.7181C135.541 90.6044 134.793 91.3709 133.951 92.0212L135.174 93.6038C136.166 92.8374 137.043 91.9373 137.804 90.9069L136.196 89.7181ZM133.956 92.0171C133.148 92.6327 132.285 93.1312 131.365 93.5144L132.135 95.3606C133.215 94.9105 134.227 94.3256 135.169 93.6079L133.956 92.0171ZM131.386 93.5063C130.529 93.8414 129.715 94 128.938 94V96C129.993 96 131.054 95.7836 132.114 95.3687L131.386 93.5063ZM128.938 94H109.875V96H128.938V94ZM109.875 94C108.43 94 107.059 93.6318 105.746 92.8818L104.754 94.6182C106.358 95.5349 108.07 96 109.875 96V94ZM105.746 92.8818C104.411 92.1186 103.239 91.0849 102.232 89.7675L100.643 90.9825C101.802 92.4984 103.173 93.7147 104.754 94.6182L105.746 92.8818ZM102.251 89.7938C101.276 88.428 100.486 86.8342 99.8882 85.0025L97.9868 85.6225C98.6395 87.6241 99.516 89.4054 100.624 90.9562L102.251 89.7938ZM99.8882 85.0025C99.2988 83.195 99 81.238 99 79.125H97C97 81.4286 97.3262 83.5967 97.9868 85.6225L99.8882 85.0025ZM99 79.125V29.5625H97V79.125H99ZM179.5 29.5625V28.5625H178.5V29.5625H179.5ZM194.438 29.5625H195.438V28.5625H194.438V29.5625ZM194.438 54.6875H193.438V57.7023L195.239 55.2851L194.438 54.6875ZM209.625 34.3125L208.86 33.6684L208.841 33.6911L208.823 33.7149L209.625 34.3125ZM213.75 30.75L214.238 31.623L214.246 31.6182L213.75 30.75ZM223.812 30.75L223.327 31.6242L223.337 31.6297L223.812 30.75ZM227.812 34.1875L227.021 34.7983L227.03 34.8109L227.041 34.8232L227.812 34.1875ZM230.562 39.1875L229.618 39.516L229.621 39.5251L229.625 39.5342L230.562 39.1875ZM231.625 52.4375H230.625V55.5235L232.435 53.024L231.625 52.4375ZM244.75 34.3125L243.994 33.6583L243.965 33.691L243.94 33.726L244.75 34.3125ZM249.25 30.75L248.803 29.8556L249.25 30.75ZM259.562 30.75L259.077 31.6242L259.087 31.6297L259.562 30.75ZM263.562 34.1875L262.771 34.7983L262.78 34.8109L262.791 34.8232L263.562 34.1875ZM266.312 39.1875L265.368 39.516L265.371 39.5251L265.375 39.5342L266.312 39.1875ZM267.375 84.3125H266.375V85.3125H267.375V84.3125ZM278.5 84.3125L279.494 84.426L279.621 83.3125H278.5V84.3125ZM277.25 88.5L276.355 88.0527L276.35 88.0644L277.25 88.5ZM274.812 91.875L274.121 91.153L274.113 91.1604L274.105 91.1679L274.812 91.875ZM271.5 94.1875L271.898 95.1051L271.91 95.0995L271.923 95.0937L271.5 94.1875ZM259.562 93.75L259.055 94.612L259.066 94.6182L259.562 93.75ZM255.875 90.375L255.061 90.9563L255.069 90.9674L255.875 90.375ZM253.375 85.3125L252.418 85.6037L252.421 85.6131L252.424 85.6225L253.375 85.3125ZM252.5 41.5625H253.5V38.7782L251.729 40.9263L252.5 41.5625ZM231.625 66.875L230.854 66.2388L230.625 66.5158V66.875H231.625ZM231.625 95V96H232.625V95H231.625ZM216.688 95H215.688V96H216.688V95ZM216.688 41.5625H217.688V38.7367L215.91 40.9335L216.688 41.5625ZM194.438 69.0625L193.66 68.4335L193.438 68.7086V69.0625H194.438ZM194.438 95V96H195.438V95H194.438ZM179.5 95H178.5V96H179.5V95ZM179.5 30.5625H194.438V28.5625H179.5V30.5625ZM193.438 29.5625V54.6875H195.438V29.5625H193.438ZM195.239 55.2851L210.427 34.9101L208.823 33.7149L193.636 54.0899L195.239 55.2851ZM210.39 34.9566C211.666 33.4414 212.951 32.342 214.238 31.6229L213.262 29.8771C211.716 30.7414 210.251 32.017 208.86 33.6684L210.39 34.9566ZM214.246 31.6182C215.521 30.8897 217.112 30.5 219.062 30.5V28.5C216.847 28.5 214.896 28.9436 213.254 29.8818L214.246 31.6182ZM219.062 30.5C220.554 30.5 221.971 30.8708 223.327 31.6242L224.298 29.8758C222.654 28.9625 220.904 28.5 219.062 28.5V30.5ZM223.337 31.6297C224.749 32.3931 225.977 33.445 227.021 34.7983L228.604 33.5767C227.398 32.0134 225.959 30.7735 224.288 29.8703L223.337 31.6297ZM227.041 34.8232C228.124 36.1393 228.986 37.6994 229.618 39.516L231.507 38.859C230.806 36.8423 229.834 35.069 228.584 33.5518L227.041 34.8232ZM229.625 39.5342C230.289 41.3312 230.625 43.2754 230.625 45.375H232.625C232.625 43.0579 232.253 40.8771 231.5 38.8408L229.625 39.5342ZM230.625 45.375V52.4375H232.625V45.375H230.625ZM232.435 53.024L245.56 34.899L243.94 33.726L230.815 51.851L232.435 53.024ZM245.506 34.9667C246.762 33.5153 248.159 32.4135 249.697 31.6444L248.803 29.8556C247.008 30.7532 245.405 32.0264 243.994 33.6583L245.506 34.9667ZM249.697 31.6444C251.212 30.887 252.911 30.5 254.812 30.5V28.5C252.631 28.5 250.621 28.9464 248.803 29.8556L249.697 31.6444ZM254.812 30.5C256.304 30.5 257.721 30.8708 259.077 31.6242L260.048 29.8758C258.404 28.9625 256.654 28.5 254.812 28.5V30.5ZM259.087 31.6297C260.499 32.3931 261.727 33.445 262.771 34.7983L264.354 33.5767C263.148 32.0134 261.709 30.7735 260.038 29.8703L259.087 31.6297ZM262.791 34.8232C263.874 36.1393 264.736 37.6994 265.368 39.516L267.257 38.859C266.556 36.8423 265.584 35.069 264.334 33.5518L262.791 34.8232ZM265.375 39.5342C266.039 41.3312 266.375 43.2754 266.375 45.375H268.375C268.375 43.0579 268.003 40.8771 267.25 38.8408L265.375 39.5342ZM266.375 45.375V84.3125H268.375V45.375H266.375ZM267.375 85.3125H278.5V83.3125H267.375V85.3125ZM277.506 84.199C277.353 85.5393 276.971 86.8224 276.356 88.0528L278.144 88.9472C278.863 87.511 279.313 86.0024 279.494 84.426L277.506 84.199ZM276.35 88.0644C275.775 89.2529 275.032 90.28 274.121 91.153L275.504 92.597C276.593 91.5534 277.475 90.3304 278.15 88.9356L276.35 88.0644ZM274.105 91.1679C273.231 92.0423 272.223 92.7464 271.077 93.2813L271.923 95.0937C273.277 94.462 274.477 93.6243 275.52 92.5821L274.105 91.1679ZM271.102 93.2699C269.979 93.7567 268.802 94 267.562 94V96C269.073 96 270.521 95.7016 271.898 95.1051L271.102 93.2699ZM267.562 94H264.188V96H267.562V94ZM264.188 94C262.743 94 261.371 93.6318 260.059 92.8818L259.066 94.6182C260.67 95.5349 262.382 96 264.188 96V94ZM260.07 92.8881C258.778 92.1281 257.648 91.0979 256.681 89.7826L255.069 90.9674C256.186 92.4855 257.514 93.7052 259.055 94.6119L260.07 92.8881ZM256.689 89.7938C255.713 88.428 254.923 86.8342 254.326 85.0025L252.424 85.6225C253.077 87.6241 253.954 89.4054 255.061 90.9562L256.689 89.7938ZM254.332 85.0213C253.78 83.2082 253.5 81.2447 253.5 79.125H251.5C251.5 81.422 251.803 83.5835 252.418 85.6037L254.332 85.0213ZM253.5 79.125V41.5625H251.5V79.125H253.5ZM251.729 40.9263L230.854 66.2388L232.396 67.5112L253.271 42.1987L251.729 40.9263ZM230.625 66.875V95H232.625V66.875H230.625ZM231.625 94H216.688V96H231.625V94ZM217.688 95V41.5625H215.688V95H217.688ZM215.91 40.9335L193.66 68.4335L195.215 69.6915L217.465 42.1915L215.91 40.9335ZM193.438 69.0625V95H195.438V69.0625H193.438ZM194.438 94H179.5V96H194.438V94ZM180.5 95V29.5625H178.5V95H180.5ZM306.312 112.812H307.313L307.312 112.81L306.312 112.812ZM305.375 119L304.424 118.69L304.42 118.702L304.417 118.715L305.375 119ZM302.875 124.062L302.081 123.455L302.071 123.468L302.061 123.481L302.875 124.062ZM299.188 127.5L298.68 126.638L298.671 126.644L298.662 126.649L299.188 127.5ZM291.375 128.812H290.375V129.812H291.375V128.812ZM291.375 29.5625V28.5625H290.375V29.5625H291.375ZM339.75 30.8125L340.257 29.9506L339.75 30.8125ZM343.5 34.25L342.697 34.8464L342.706 34.8575L343.5 34.25ZM347 84.3125H346V85.3125H347V84.3125ZM360.188 84.3125L361.181 84.426L361.308 83.3125H360.188V84.3125ZM358.938 88.5L358.043 88.0527L358.037 88.0644L358.938 88.5ZM356.5 91.875L355.808 91.153L355.8 91.1604L355.793 91.1679L356.5 91.875ZM353.188 94.1875L353.585 95.1051L353.598 95.0995L353.61 95.0937L353.188 94.1875ZM310.688 93.125L310.094 93.9296L310.1 93.9342L310.106 93.9387L310.688 93.125ZM306.25 88L307.119 87.5057L305.24 84.2015L305.25 88.0025L306.25 88ZM332.062 84.25V85.25H333.062V84.25H332.062ZM332.062 40.25H333.062V39.25H332.062V40.25ZM306.25 40.25V39.25H305.25V40.25H306.25ZM306.25 84.25H305.25V85.25H306.25V84.25ZM305.312 112.812C305.312 114.926 305.014 116.882 304.424 118.69L306.326 119.31C306.986 117.284 307.312 115.116 307.312 112.812H305.312ZM304.417 118.715C303.863 120.573 303.08 122.148 302.081 123.455L303.669 124.67C304.836 123.144 305.72 121.343 306.333 119.285L304.417 118.715ZM302.061 123.481C301.094 124.836 299.966 125.882 298.68 126.638L299.695 128.362C301.243 127.451 302.573 126.206 303.689 124.644L302.061 123.481ZM298.662 126.649C297.399 127.429 296.06 127.812 294.625 127.812V129.812C296.44 129.812 298.143 129.321 299.713 128.351L298.662 126.649ZM294.625 127.812H291.375V129.812H294.625V127.812ZM292.375 128.812V29.5625H290.375V128.812H292.375ZM291.375 30.5625H335.188V28.5625H291.375V30.5625ZM335.188 30.5625C336.632 30.5625 337.978 30.9304 339.243 31.6744L340.257 29.9506C338.689 29.0279 336.993 28.5625 335.188 28.5625V30.5625ZM339.243 31.6744C340.533 32.4331 341.685 33.4841 342.697 34.8463L344.303 33.6537C343.148 32.0993 341.801 30.8586 340.257 29.9506L339.243 31.6744ZM342.706 34.8575C343.712 36.1736 344.517 37.7368 345.112 39.56L347.013 38.94C346.358 36.9299 345.455 35.1597 344.294 33.6425L342.706 34.8575ZM345.112 39.56C345.701 41.3675 346 43.3245 346 45.4375H348C348 43.1339 347.674 40.9658 347.013 38.94L345.112 39.56ZM346 45.4375V84.3125H348V45.4375H346ZM347 85.3125H360.188V83.3125H347V85.3125ZM359.194 84.199C359.041 85.5393 358.658 86.8224 358.043 88.0528L359.832 88.9472C360.55 87.511 361.001 86.0024 361.181 84.426L359.194 84.199ZM358.037 88.0644C357.462 89.2529 356.719 90.28 355.808 91.153L357.192 92.597C358.281 91.5534 359.163 90.3304 359.838 88.9356L358.037 88.0644ZM355.793 91.1679C354.918 92.0423 353.911 92.7464 352.765 93.2813L353.61 95.0937C354.964 94.462 356.165 93.6243 357.207 92.5821L355.793 91.1679ZM352.79 93.2699C351.667 93.7567 350.49 94 349.25 94V96C350.76 96 352.208 95.7016 353.585 95.1051L352.79 93.2699ZM349.25 94H316.312V96H349.25V94ZM316.312 94C314.537 94 312.863 93.4498 311.269 92.3113L310.106 93.9387C312.012 95.3002 314.088 96 316.312 96V94ZM311.281 92.3204C309.657 91.1215 308.267 89.5242 307.119 87.5057L305.381 88.4943C306.65 90.7258 308.218 92.5452 310.094 93.9296L311.281 92.3204ZM305.25 88.0025L305.313 112.815L307.312 112.81L307.25 87.9975L305.25 88.0025ZM333.062 84.25V40.25H331.062V84.25H333.062ZM332.062 39.25H306.25V41.25H332.062V39.25ZM305.25 40.25V84.25H307.25V40.25H305.25ZM306.25 85.25H332.062V83.25H306.25V85.25Z" fill="black"/>
<defs>
<filter id="filter0_i_157_2" x="0.875" y="0.25" width="359.312" height="132.562" filterUnits="userSpaceOnUse" color-interpolation-filters="sRGB">
<feFlood flood-opacity="0" result="BackgroundImageFix"/>
<feBlend mode="normal" in="SourceGraphic" in2="BackgroundImageFix" result="shape"/>
<feColorMatrix in="SourceAlpha" type="matrix" values="0 0 0 0 0 0 0 0 0 0 0 0 0 0 0 0 0 0 127 0" result="hardAlpha"/>
<feOffset dy="4"/>
<feGaussianBlur stdDeviation="2"/>
<feComposite in2="hardAlpha" operator="arithmetic" k2="-1" k3="1"/>
<feColorMatrix type="matrix" values="0 0 0 0 0 0 0 0 0 0 0 0 0 0 0 0 0 0 0.25 0"/>
<feBlend mode="normal" in2="shape" result="effect1_innerShadow_157_2"/>
</filter>
</defs>
</svg>
